{"title":"Thirst.aka.Bakjwi.2009.SWESUB.DVDRip.XviD.AC3.(5.1)-Zen_Bud","uid":5733502,"size":1471721730,"categoryP":"video","categoryS":"movies","magnet":"?xt=urn:btih:6d73307572634c27dafadf7a7d30a4b91f79c696&amp;dn=Thirst.aka.Bakjwi.2009.SWESUB.DVDRip.XviD.AC3.%285.1%29-Zen_Bud&amp;tr=udp%3A%2F%2Ftracker.openbittorrent.com%3A80&amp;tr=udp%3A%2F%2Fopen.demonii.com%3A1337&amp;tr=udp%3A%2F%2Ftracker.coppersurfer.tk%3A6969&amp;tr=udp%3A%2F%2Fexodus.desync.com%3A6969","seeders":0,"leechers":1,"uploader":"Zen_Bud","files":1,"time":1280738480,"description":"General\nComplete name                    : Thirst.2009.avi\nFormat                           : AVI\nFile size                        : 1.37 GiB\nDuration                         : 2h 8mn\nOverall bit rate                 : 1 525 Kbps\n\nVideo\n\nFormat                           : MPEG-4 Visual\nCodec ID/Hint                    : XviD\nDuration                         : 2h 8mn\nBit rate                         : 1 066 Kbps\nWidth                            : 720 pixels\nHeight                           : 436 pixels\nDisplay aspect ratio             : 2.35:1\nStream size                      : 981 MiB (70%)\nWriting library                  : XviD 1.1.2 (UTC 2006-11-01)\n\nAudio\n\nFormat                           : AC-3\nDuration                         : 2h 8mn\nBit rate                         : 448 Kbps\nChannel(s)                       : 6 channels\nChannel positions                : Front: L C R, Side: L R, LFE\nSampling rate                    : 48.0 KHz\nStream size                      : 412 MiB (29%)\n\n &lt;a href=&quot;\nhttp://en.wikipedia.org/wiki/Thirst_%282009_film%29&quot; rel=&quot;nofollow&quot; target=&quot;_NEW&quot;&gt;\nhttp://en.wikipedia.org/wiki/Thirst_%282009_film%29&lt;/a&gt;","torrent":{"xt":"urn:btih:6d73307572634c27dafadf7a7d30a4b91f79c696","amp;dn":"Thirst.aka.Bakjwi.2009.SWESUB.DVDRip.XviD.AC3.%285.1%29-Zen_Bud","amp;tr":["udp%3A%2F%2Ftracker.openbittorrent.com%3A80","udp%3A%2F%2Fopen.demonii.com%3A1337","udp%3A%2F%2Ftracker.coppersurfer.tk%3A6969","udp%3A%2F%2Fexodus.desync.com%3A6969"],"infoHash":"6d73307572634c27dafadf7a7d30a4b91f79c696","infoHashBuffer":{"type":"Buffer","data":[109,115,48,117,114,99,76,39,218,250,223,122,125,48,164,185,31,121,198,150]},"announce":[],"urlList":[]}}